<?xml version="1.0" standalone="no"?>
<!DOCTYPE svg PUBLIC "-//W3C//DTD SVG 20010904//EN"
 "http://www.w3.org/TR/2001/REC-SVG-20010904/DTD/svg10.dtd">
<svg version="1.0" xmlns="http://www.w3.org/2000/svg"
 width="2363.000000pt" height="2363.000000pt" viewBox="0 0 2363.000000 2363.000000"
 preserveAspectRatio="xMidYMid meet">

<g transform="translate(0.000000,2363.000000) scale(0.100000,-0.100000)"
fill="#000000" stroke="none">
<path d="M19773 15709 c-58 -11 -94 -31 -137 -79 -49 -54 -66 -97 -66 -161 0
-80 19 -129 70 -180 127 -127 324 -96 406 64 9 17 19 56 21 87 15 167 -130
300 -294 269z"/>
<path d="M17448 15700 c-72 -12 -145 -38 -233 -83 -107 -55 -244 -190 -298
-294 -121 -233 -99 -498 60 -721 181 -255 541 -452 824 -452 71 0 69 9 38
-171 -60 -358 -182 -716 -339 -999 -150 -272 -365 -545 -535 -680 -189 -151
-527 -313 -682 -327 -62 -6 -63 -6 -74 23 -12 33 -8 86 27 322 44 303 57 486
51 742 -5 245 -17 342 -62 521 -61 239 -167 480 -302 684 -350 529 -889 891
-1511 1015 -223 44 -328 54 -557 53 -411 -1 -765 -83 -1130 -263 -237 -116
-452 -265 -631 -437 -74 -72 -95 -108 -101 -183 -17 -184 153 -315 330 -254
31 10 74 42 136 98 327 302 713 481 1151 536 124 15 391 12 527 -5 248 -33
416 -81 613 -176 406 -196 729 -526 905 -927 161 -366 181 -722 79 -1412 -13
-91 -24 -207 -24 -258 0 -295 142 -493 400 -558 92 -23 273 -14 395 19 225 63
540 223 740 376 84 64 225 201 310 301 439 518 713 1170 800 1905 9 77 18 141
18 141 1 1 51 21 112 45 357 139 896 490 956 624 21 46 24 129 7 186 -27 91
-125 161 -228 162 -72 0 -124 -24 -225 -104 -107 -85 -238 -173 -359 -243
-127 -73 -237 -129 -243 -122 -3 2 -9 40 -14 83 -13 104 -44 228 -80 315 -85
207 -272 395 -468 471 -136 53 -259 68 -383 47z m210 -510 c58 -26 142 -113
175 -180 36 -74 57 -176 57 -282 l0 -88 -32 0 c-169 0 -376 107 -473 244 -68
96 -68 170 1 246 71 78 179 102 272 60z"/>
<path d="M13760 14379 c-187 -15 -444 -86 -601 -164 -399 -200 -674 -560 -771
-1008 -32 -149 -32 -416 0 -575 65 -323 198 -578 412 -792 277 -277 630 -424
1015 -423 423 2 823 161 1100 438 275 274 421 629 420 1020 -1 211 -40 412
-120 610 -174 432 -554 757 -1010 863 -79 19 -292 44 -335 41 -8 -1 -58 -5
-110 -10z m315 -463 c94 -25 272 -119 352 -186 221 -183 362 -464 394 -787 30
-291 -62 -580 -250 -785 -251 -274 -696 -374 -1052 -237 -236 91 -460 325
-560 583 -226 585 -7 1164 516 1367 138 54 231 69 395 65 92 -2 167 -9 205
-20z"/>
<path d="M10579 14149 c-222 -33 -325 -306 -178 -473 116 -132 317 -141 429
-20 101 109 114 253 34 373 -58 88 -173 136 -285 120z"/>
<path d="M9503 13884 c-23 -9 -62 -33 -87 -55 -99 -88 -129 -227 -73 -342 33
-66 81 -111 155 -145 45 -20 65 -23 125 -20 85 5 135 26 190 81 79 79 107 205
68 307 -29 76 -71 123 -143 159 -51 26 -73 31 -127 30 -36 0 -85 -7 -108 -15z"/>
<path d="M10510 13334 c-463 -53 -815 -225 -1059 -518 -303 -362 -410 -795
-315 -1266 108 -530 477 -948 986 -1114 165 -54 280 -69 481 -63 735 23 1301
479 1449 1170 32 149 32 407 0 567 -68 335 -198 587 -416 806 -209 208 -445
335 -738 394 -95 20 -311 33 -388 24z m175 -444 c207 -24 380 -108 538 -259
158 -152 260 -337 313 -571 77 -336 11 -658 -184 -901 -37 -46 -96 -107 -132
-136 -86 -70 -242 -147 -365 -180 -89 -23 -118 -26 -260 -27 -145 0 -168 3
-248 27 -161 50 -287 125 -408 246 -293 294 -406 783 -269 1175 60 175 195
354 343 455 122 83 310 151 470 170 102 12 103 12 202 1z"/>
<path d="M7603 13214 c-143 -31 -270 -105 -410 -238 -178 -170 -316 -373 -447
-662 -182 -400 -286 -725 -491 -1542 -130 -520 -157 -609 -223 -737 -55 -106
-164 -223 -252 -270 -47 -26 -66 -30 -130 -30 -57 0 -85 6 -115 22 -87 46
-157 152 -192 290 -15 57 -17 103 -13 288 9 430 5 727 -9 805 -29 164 -94 321
-175 429 -151 201 -459 322 -715 282 -398 -62 -751 -382 -1024 -927 -324 -648
-395 -1354 -202 -2024 21 -72 46 -138 63 -160 90 -126 273 -140 378 -28 40 42
51 64 65 127 10 46 7 62 -24 173 -71 247 -91 386 -91 638 0 383 76 695 255
1054 152 304 349 535 528 619 86 41 196 49 262 20 102 -45 166 -138 190 -276
15 -89 17 -299 5 -647 -12 -347 6 -481 89 -673 54 -127 95 -187 190 -282 102
-102 168 -145 290 -187 411 -141 864 98 1092 578 67 141 112 291 233 774 210
840 311 1155 490 1528 94 195 183 327 294 438 109 109 156 134 248 134 82 0
166 -39 231 -109 107 -114 141 -246 197 -774 38 -353 55 -478 85 -628 75 -369
218 -690 441 -989 93 -124 287 -322 399 -407 329 -248 695 -397 1096 -449 184
-23 512 -16 689 16 522 92 1037 369 1450 779 132 132 280 306 306 360 22 46
30 139 15 184 -47 143 -209 210 -344 143 -43 -21 -71 -47 -137 -127 -233 -284
-519 -514 -840 -673 -337 -167 -689 -233 -1038 -195 -619 67 -1115 418 -1392
983 -134 275 -175 454 -235 1036 -56 534 -104 746 -213 928 -183 306 -548 477
-869 406z"/>
<path d="M20014 12921 c-138 -34 -225 -203 -161 -316 23 -41 305 -292 362
-323 17 -9 53 -16 80 -16 159 0 281 195 203 324 -26 43 -318 297 -363 315 -45
19 -86 24 -121 16z m83 -86 c33 -14 181 -134 281 -229 82 -77 90 -133 30 -202
-58 -65 -109 -79 -167 -43 -58 35 -301 250 -316 280 -34 65 2 155 76 192 42
21 51 21 96 2z"/>
<path d="M19535 12428 l-47 -52 27 -24 28 -23 26 25 27 26 54 -56 c30 -31 135
-133 233 -227 l178 -170 27 26 27 27 -45 44 c-200 196 -474 456 -480 456 -5 0
-29 -23 -55 -52z"/>
<path d="M19273 12149 c-23 -11 -82 -58 -130 -103 l-88 -83 240 -258 c132
-142 245 -260 252 -262 17 -6 201 175 224 219 24 47 24 108 0 156 -31 60 -266
308 -315 331 -55 27 -128 27 -183 0z m145 -63 c37 -19 271 -273 288 -312 21
-50 3 -90 -76 -169 l-70 -70 -24 25 c-14 14 -103 110 -199 214 l-175 190 56
50 c30 28 67 59 81 68 32 22 82 23 119 4z"/>
<path d="M18837 11780 l-26 -21 156 -197 c195 -245 203 -257 203 -300 0 -99
-134 -181 -212 -130 -13 9 -99 112 -193 231 -93 119 -172 216 -175 217 -3 0
-18 -10 -33 -23 l-28 -22 180 -227 c99 -125 192 -235 206 -244 34 -22 122 -30
168 -15 47 16 123 84 147 132 27 51 26 116 -2 166 -26 46 -347 453 -358 453
-4 0 -19 -9 -33 -20z"/>
<path d="M18172 11285 c-95 -63 -172 -119 -172 -123 1 -4 10 -18 20 -31 l20
-24 58 39 c31 22 62 42 69 47 8 5 71 -80 194 -262 l182 -270 29 17 c15 9 28
20 28 25 0 5 -81 128 -180 275 l-179 266 67 44 c37 25 69 46 71 48 2 2 -5 17
-16 33 l-19 31 -172 -115z"/>
<path d="M17729 11004 c-62 -19 -138 -72 -172 -121 -40 -56 -45 -110 -17 -168
42 -86 105 -105 289 -85 139 14 182 5 218 -49 37 -54 31 -102 -17 -155 -56
-61 -124 -89 -206 -84 -63 3 -64 3 -70 -25 -3 -16 -3 -31 1 -35 4 -4 46 -7 93
-7 72 0 96 4 137 24 64 32 121 84 147 135 44 87 4 212 -83 256 -47 24 -104 28
-271 16 l-117 -9 -30 31 c-43 42 -41 80 5 131 41 46 124 91 167 91 26 0 29 3
23 23 -3 12 -6 28 -6 35 0 16 -33 14 -91 -4z"/>
<path d="M16512 10408 c-13 -6 -21 -16 -19 -22 18 -45 271 -652 273 -655 4 -4
325 128 337 139 4 4 2 19 -4 34 -14 31 -7 32 -168 -34 -64 -27 -117 -47 -119
-45 -2 2 -58 135 -125 297 -78 185 -128 294 -137 295 -8 1 -25 -3 -38 -9z"/>
<path d="M16005 10226 l-30 -13 9 -374 c5 -206 9 -375 11 -377 1 -1 19 4 40
11 l38 13 1 123 1 123 90 29 c50 16 95 29 100 29 6 0 39 -43 75 -95 36 -52 72
-95 80 -95 8 1 27 6 42 13 l27 12 -212 307 c-120 175 -218 308 -227 307 -8 0
-28 -6 -45 -13z m175 -291 l50 -74 -82 -25 c-45 -14 -83 -25 -84 -23 -1 1 -4
72 -8 157 l-7 155 40 -58 c23 -32 63 -91 91 -132z"/>
<path d="M15460 10070 c-54 -14 -64 -20 -62 -36 7 -42 11 -46 46 -40 l33 6 80
-312 80 -313 34 3 c18 1 35 4 37 6 4 5 -169 689 -177 697 -3 3 -35 -1 -71 -11z"/>
<path d="M14865 9943 c-71 -14 -131 -26 -132 -27 -1 -1 27 -156 62 -345 36
-189 65 -347 65 -352 0 -11 67 -12 74 -1 2 4 -5 56 -16 115 -11 59 -18 110
-15 114 5 5 84 22 167 37 l36 6 64 -109 c62 -108 64 -110 94 -104 17 3 34 8
38 12 3 3 -24 57 -62 120 l-69 114 18 26 c28 39 44 110 37 166 -16 137 -69
223 -151 244 -56 14 -55 14 -210 -16z m217 -73 c33 -26 58 -88 65 -165 7 -81
-11 -117 -69 -139 -55 -20 -198 -46 -198 -36 0 4 -13 79 -30 166 -16 87 -29
159 -27 160 1 1 34 9 72 17 102 22 157 21 187 -3z"/>
<path d="M14290 9862 c-74 -8 -136 -16 -138 -17 -3 -2 77 -718 81 -720 1 -1
72 6 157 16 85 10 161 18 168 18 13 1 18 71 5 71 -5 0 -64 -7 -132 -15 -69 -8
-126 -13 -128 -11 -7 6 -34 260 -29 271 2 7 34 15 71 18 36 4 70 9 75 12 6 4
10 21 10 39 l0 32 -81 -9 c-44 -5 -83 -7 -85 -4 -8 8 -28 206 -21 213 5 5 203
32 245 34 9 0 12 11 10 33 -3 29 -6 32 -38 33 -19 1 -96 -5 -170 -14z"/>
<path d="M13628 9813 c-16 -2 -28 -7 -28 -10 0 -3 -40 -162 -90 -353 -49 -191
-90 -353 -90 -359 0 -6 17 -11 39 -11 l39 0 27 113 c15 61 30 115 34 119 3 3
53 8 110 9 l105 3 38 -115 38 -115 40 4 c22 2 40 7 40 11 0 3 -54 164 -119
356 -127 375 -118 358 -183 348z m122 -410 c0 -2 -38 -3 -85 -3 -54 0 -85 4
-85 11 0 9 32 141 61 253 l11 39 49 -149 c27 -82 49 -150 49 -151z"/>
<path d="M3781 8444 c-30 -8 -62 -20 -70 -26 -72 -54 -117 -125 -127 -202 -9
-62 19 -148 62 -196 169 -187 463 -78 464 170 0 177 -160 301 -329 254z"/>
</g>
</svg>
